<svg width="50" height="40" viewBox="0 0 50 40" fill="none" xmlns="http://www.w3.org/2000/svg">
<rect width="50" height="40" rx="6" fill="white"/>
<rect x="0.5" y="0.5" width="49" height="39" rx="5.5" stroke="black" stroke-opacity="0.25"/>
<path d="M30 11.6667C30 10.7462 29.2538 10 28.3333 10L11.6667 10C10.7462 10 10 10.7462 10 11.6667C10 12.5871 10.7462 13.3333 11.6667 13.3333L28.3333 13.3333C29.2538 13.3333 30 12.5871 30 11.6667ZM38.3333 30C39.2538 30 40 29.2538 40 28.3333C40 27.4129 39.2538 26.6667 38.3333 26.6667L11.6667 26.6667C10.7462 26.6667 10 27.4129 10 28.3333C10 29.2538 10.7462 30 11.6667 30L38.3333 30ZM30 20C30 19.0795 29.2538 18.3333 28.3333 18.3333L11.6667 18.3333C10.7462 18.3333 10 19.0795 10 20C10 20.9205 10.7462 21.6667 11.6667 21.6667L28.3333 21.6667C29.2538 21.6667 30 20.9205 30 20Z" fill="black" fill-opacity="0.5"/>
</svg>
