<svg width="12" height="12" viewBox="0 0 12 12" fill="none" xmlns="http://www.w3.org/2000/svg">
<path d="M0 6.66667V1.33333C0 0.966667 0.130556 0.652778 0.391667 0.391667C0.652778 0.130556 0.966667 0 1.33333 0H5.33333V6.66667H0ZM6.66667 0H10.6667C11.0333 0 11.3472 0.130556 11.6083 0.391667C11.8694 0.652778 12 0.966667 12 1.33333V4H6.66667V0ZM6.66667 12V5.33333H12V10.6667C12 11.0333 11.8694 11.3472 11.6083 11.6083C11.3472 11.8694 11.0333 12 10.6667 12H6.66667ZM0 8H5.33333V12H1.33333C0.966667 12 0.652778 11.8694 0.391667 11.6083C0.130556 11.3472 0 11.0333 0 10.6667V8ZM1.33333 5.33333H4V1.33333H1.33333V5.33333ZM8 2.66667H10.6667V1.33333H8V2.66667ZM8 6.66667V10.6667H10.6667V6.66667H8ZM1.33333 9.33333V10.6667H4V9.33333H1.33333Z" fill="black" fill-opacity="0.5"/>
</svg>
