<svg width="14" height="15" viewBox="0 0 14 15" fill="none" xmlns="http://www.w3.org/2000/svg">
<path d="M11.9937 5.0499C12.2885 5.07465 12.5079 5.3394 12.4838 5.64164C12.4801 5.69189 12.0829 10.7356 11.854 12.8513C11.7135 14.1563 10.8715 14.949 9.6031 14.9723C8.63898 14.9903 8.40562 15 7.44076 15C7.25789 15 7.07574 15 6.89286 14.9993C6.59733 14.9978 6.35813 14.7518 6.35959 14.448C6.36032 14.1458 6.59953 13.902 6.89506 13.902L7.1669 13.9027C7.50937 13.9032 7.78425 13.9022 8.04561 13.8999L8.43427 13.8954C8.76096 13.8908 9.10879 13.8842 9.58335 13.8758C10.3141 13.8615 10.7084 13.4873 10.7896 12.7313C11.0171 10.6306 11.4136 5.60339 11.4172 5.55314C11.4407 5.2509 11.7025 5.03415 11.9937 5.0499ZM1.50618 5.04967C1.80098 5.03617 2.0592 5.25142 2.08261 5.55367C2.08626 5.60392 2.47982 10.6176 2.70951 12.7348C2.78924 13.475 3.17841 13.8575 3.86603 13.8725C4.16155 13.8785 4.39637 14.1298 4.39052 14.4328C4.38393 14.732 4.14546 14.9698 3.85505 14.9698H3.84408C2.62539 14.9435 1.78342 14.1343 1.64516 12.8571C1.41401 10.7226 1.01972 5.69166 1.01607 5.64067C0.991926 5.33917 1.21138 5.07442 1.50618 5.04967ZM8.30116 0C8.96684 0 9.55204 0.460493 9.72468 1.12048C9.80149 1.41373 9.63178 1.71447 9.34649 1.79322C9.06193 1.87197 8.76787 1.69797 8.69106 1.40473C8.64351 1.22398 8.48331 1.09798 8.30116 1.09798H5.19883C5.01669 1.09798 4.85649 1.22398 4.80894 1.40473L4.6385 2.28447C4.61509 2.40296 4.57852 2.51396 4.53462 2.62271H12.9645C13.2601 2.62271 13.5 2.86796 13.5 3.17095C13.5 3.4747 13.2601 3.71994 12.9645 3.71994H0.534733C0.239203 3.71994 0 3.4747 0 3.17095C0 2.86796 0.239203 2.62271 0.534733 2.62271H2.93043C3.24936 2.62271 3.5266 2.38946 3.58878 2.06997L3.76727 1.15498C3.94795 0.460493 4.53316 0 5.19883 0H8.30116Z" fill="#E00004"/>
</svg>
