<svg width="15" height="15" viewBox="0 0 15 15" fill="none" xmlns="http://www.w3.org/2000/svg">
<path d="M6.87427 1.25H5.62443C2.49984 1.25 1.25 2.49984 1.25 5.62443V9.37394C1.25 12.4985 2.49984 13.7484 5.62443 13.7484H9.37394C12.4985 13.7484 13.7484 12.4985 13.7484 9.37394V8.1241" stroke="#FBB040" stroke-width="1.5" stroke-linecap="round" stroke-linejoin="round"/>
<path d="M10.0249 1.88719L5.10057 6.81155C4.91309 6.99902 4.72562 7.36772 4.68812 7.63644L4.41941 9.51744C4.31942 10.1986 4.80061 10.6735 5.48177 10.5798L7.36277 10.3111C7.62524 10.2736 7.99394 10.0861 8.18766 9.89865L13.112 4.97429C13.9619 4.1244 14.3619 3.13703 13.112 1.88719C11.8622 0.637351 10.8748 1.0373 10.0249 1.88719Z" stroke="#FBB040" stroke-width="1.5" stroke-miterlimit="10" stroke-linecap="round" stroke-linejoin="round"/>
<path d="M9.31641 2.59351C9.7351 4.08706 10.9037 5.25566 12.4035 5.6806" stroke="#FBB040" stroke-width="1.5" stroke-miterlimit="10" stroke-linecap="round" stroke-linejoin="round"/>
</svg>
