<svg width="9" height="15" viewBox="0 0 9 15" fill="none" xmlns="http://www.w3.org/2000/svg">
<path d="M3.5615 15V13.2083C2.71123 13.0417 1.97727 12.7222 1.35963 12.25C0.741979 11.7778 0.28877 11.1111 0 10.25L1.78075 9.625C2.02139 10.2917 2.37834 10.7986 2.8516 11.1458C3.32487 11.4931 3.94652 11.6667 4.71658 11.6667C5.37433 11.6667 5.93182 11.5382 6.38904 11.2812C6.84626 11.0243 7.07487 10.625 7.07487 10.0833C7.07487 9.59722 6.8984 9.21181 6.54545 8.92708C6.19251 8.64236 5.37433 8.31944 4.09091 7.95833C2.71123 7.58333 1.76471 7.13542 1.25134 6.61458C0.737968 6.09375 0.481283 5.45833 0.481283 4.70833C0.481283 3.80556 0.818182 3.10417 1.49198 2.60417C2.16578 2.10417 2.85561 1.81944 3.5615 1.75V0H5.48663V1.75C6.28877 1.86111 6.95053 2.11458 7.47192 2.51042C7.99332 2.90625 8.37433 3.38889 8.61497 3.95833L6.83422 4.625C6.64171 4.18056 6.36898 3.84722 6.01604 3.625C5.6631 3.40278 5.18182 3.29167 4.57219 3.29167C3.86631 3.29167 3.32888 3.42708 2.95989 3.69792C2.59091 3.96875 2.40642 4.30556 2.40642 4.70833C2.40642 5.16667 2.64706 5.52778 3.12834 5.79167C3.60963 6.05556 4.44385 6.33333 5.63102 6.625C6.73797 6.90278 7.5762 7.34375 8.14572 7.94792C8.71524 8.55208 9 9.25 9 10.0417C9 11.0278 8.6631 11.7778 7.9893 12.2917C7.31551 12.8056 6.48128 13.125 5.48663 13.25V15H3.5615Z" fill="url(#paint0_linear_1119_5210)"/>
<defs>
<linearGradient id="paint0_linear_1119_5210" x1="4.5" y1="0" x2="4.5" y2="15" gradientUnits="userSpaceOnUse">
<stop stop-color="#0575E6"/>
<stop offset="1" stop-color="#021B79"/>
</linearGradient>
</defs>
</svg>
