<svg width="15" height="17" viewBox="0 0 15 17" fill="none" xmlns="http://www.w3.org/2000/svg">
<path d="M1.66667 17C1.20833 17 0.815972 16.8335 0.489583 16.5006C0.163194 16.1677 0 15.7675 0 15.3V3.4C0 2.9325 0.163194 2.53229 0.489583 2.19938C0.815972 1.86646 1.20833 1.7 1.66667 1.7H5.16667C5.36111 1.19 5.66667 0.779167 6.08333 0.4675C6.5 0.155833 6.97222 0 7.5 0C8.02778 0 8.5 0.155833 8.91667 0.4675C9.33333 0.779167 9.63889 1.19 9.83333 1.7H13.3333C13.7917 1.7 14.184 1.86646 14.5104 2.19938C14.8368 2.53229 15 2.9325 15 3.4V15.3C15 15.7675 14.8368 16.1677 14.5104 16.5006C14.184 16.8335 13.7917 17 13.3333 17H1.66667ZM7.5 2.7625C7.68056 2.7625 7.82986 2.70229 7.94792 2.58188C8.06597 2.46146 8.125 2.30917 8.125 2.125C8.125 1.94083 8.06597 1.78854 7.94792 1.66813C7.82986 1.54771 7.68056 1.4875 7.5 1.4875C7.31944 1.4875 7.17014 1.54771 7.05208 1.66813C6.93403 1.78854 6.875 1.94083 6.875 2.125C6.875 2.30917 6.93403 2.46146 7.05208 2.58188C7.17014 2.70229 7.31944 2.7625 7.5 2.7625ZM1.66667 14.3225C2.41667 13.5717 3.28819 12.9802 4.28125 12.5481C5.27431 12.116 6.34722 11.9 7.5 11.9C8.65278 11.9 9.72569 12.116 10.7188 12.5481C11.7118 12.9802 12.5833 13.5717 13.3333 14.3225V3.4H1.66667V14.3225ZM7.5 10.2C8.30556 10.2 8.99306 9.90958 9.5625 9.32875C10.1319 8.74792 10.4167 8.04667 10.4167 7.225C10.4167 6.40333 10.1319 5.70208 9.5625 5.12125C8.99306 4.54042 8.30556 4.25 7.5 4.25C6.69444 4.25 6.00694 4.54042 5.4375 5.12125C4.86806 5.70208 4.58333 6.40333 4.58333 7.225C4.58333 8.04667 4.86806 8.74792 5.4375 9.32875C6.00694 9.90958 6.69444 10.2 7.5 10.2ZM3.33333 15.3H11.6667V15.0875C11.0833 14.5917 10.4375 14.2198 9.72917 13.9719C9.02083 13.724 8.27778 13.6 7.5 13.6C6.72222 13.6 5.97917 13.724 5.27083 13.9719C4.5625 14.2198 3.91667 14.5917 3.33333 15.0875V15.3ZM7.5 8.5C7.15278 8.5 6.85764 8.37604 6.61458 8.12813C6.37153 7.88021 6.25 7.57917 6.25 7.225C6.25 6.87083 6.37153 6.56979 6.61458 6.32188C6.85764 6.07396 7.15278 5.95 7.5 5.95C7.84722 5.95 8.14236 6.07396 8.38542 6.32188C8.62847 6.56979 8.75 6.87083 8.75 7.225C8.75 7.57917 8.62847 7.88021 8.38542 8.12813C8.14236 8.37604 7.84722 8.5 7.5 8.5Z" fill="url(#paint0_linear_990_5626)"/>
<defs>
<linearGradient id="paint0_linear_990_5626" x1="7.5" y1="0" x2="7.5" y2="17" gradientUnits="userSpaceOnUse">
<stop stop-color="#0575E6"/>
<stop offset="1" stop-color="#021B79"/>
</linearGradient>
</defs>
</svg>
