<svg width="25" height="25" viewBox="0 0 25 25" fill="none" xmlns="http://www.w3.org/2000/svg">
<path d="M6.25 14.375C6.77083 14.375 7.21354 14.1927 7.57812 13.8281C7.94271 13.4635 8.125 13.0208 8.125 12.5C8.125 11.9792 7.94271 11.5365 7.57812 11.1719C7.21354 10.8073 6.77083 10.625 6.25 10.625C5.72917 10.625 5.28646 10.8073 4.92188 11.1719C4.55729 11.5365 4.375 11.9792 4.375 12.5C4.375 13.0208 4.55729 13.4635 4.92188 13.8281C5.28646 14.1927 5.72917 14.375 6.25 14.375ZM12.5 14.375C13.0208 14.375 13.4635 14.1927 13.8281 13.8281C14.1927 13.4635 14.375 13.0208 14.375 12.5C14.375 11.9792 14.1927 11.5365 13.8281 11.1719C13.4635 10.8073 13.0208 10.625 12.5 10.625C11.9792 10.625 11.5365 10.8073 11.1719 11.1719C10.8073 11.5365 10.625 11.9792 10.625 12.5C10.625 13.0208 10.8073 13.4635 11.1719 13.8281C11.5365 14.1927 11.9792 14.375 12.5 14.375ZM18.75 14.375C19.2708 14.375 19.7135 14.1927 20.0781 13.8281C20.4427 13.4635 20.625 13.0208 20.625 12.5C20.625 11.9792 20.4427 11.5365 20.0781 11.1719C19.7135 10.8073 19.2708 10.625 18.75 10.625C18.2292 10.625 17.7865 10.8073 17.4219 11.1719C17.0573 11.5365 16.875 11.9792 16.875 12.5C16.875 13.0208 17.0573 13.4635 17.4219 13.8281C17.7865 14.1927 18.2292 14.375 18.75 14.375ZM12.5 25C10.7708 25 9.14583 24.6719 7.625 24.0156C6.10417 23.3594 4.78125 22.4688 3.65625 21.3438C2.53125 20.2188 1.64062 18.8958 0.984375 17.375C0.328125 15.8542 0 14.2292 0 12.5C0 10.7708 0.328125 9.14583 0.984375 7.625C1.64062 6.10417 2.53125 4.78125 3.65625 3.65625C4.78125 2.53125 6.10417 1.64062 7.625 0.984375C9.14583 0.328125 10.7708 0 12.5 0C14.2292 0 15.8542 0.328125 17.375 0.984375C18.8958 1.64062 20.2188 2.53125 21.3438 3.65625C22.4688 4.78125 23.3594 6.10417 24.0156 7.625C24.6719 9.14583 25 10.7708 25 12.5C25 14.2292 24.6719 15.8542 24.0156 17.375C23.3594 18.8958 22.4688 20.2188 21.3438 21.3438C20.2188 22.4688 18.8958 23.3594 17.375 24.0156C15.8542 24.6719 14.2292 25 12.5 25ZM12.5 22.5C15.2917 22.5 17.6562 21.5312 19.5938 19.5938C21.5312 17.6562 22.5 15.2917 22.5 12.5C22.5 9.70833 21.5312 7.34375 19.5938 5.40625C17.6562 3.46875 15.2917 2.5 12.5 2.5C9.70833 2.5 7.34375 3.46875 5.40625 5.40625C3.46875 7.34375 2.5 9.70833 2.5 12.5C2.5 15.2917 3.46875 17.6562 5.40625 19.5938C7.34375 21.5312 9.70833 22.5 12.5 22.5Z" fill="url(#paint0_linear_928_16416)"/>
<defs>
<linearGradient id="paint0_linear_928_16416" x1="12.5" y1="0" x2="12.5" y2="25" gradientUnits="userSpaceOnUse">
<stop stop-color="#0575E6"/>
<stop offset="1" stop-color="#021B79"/>
</linearGradient>
</defs>
</svg>
