<svg width="14" height="14" viewBox="0 0 14 14" fill="none" xmlns="http://www.w3.org/2000/svg">
<path d="M8.67934 12.6667H12.6698V12.1167C12.3927 11.8611 12.0823 11.6667 11.7387 11.5333C11.3951 11.4 11.0404 11.3333 10.6746 11.3333C10.3088 11.3333 9.95408 11.4 9.61045 11.5333C9.26683 11.6667 8.95645 11.8611 8.67934 12.1167V12.6667ZM10.6746 10.6667C10.9517 10.6667 11.1873 10.5694 11.3812 10.375C11.5752 10.1806 11.6722 9.94444 11.6722 9.66667C11.6722 9.38889 11.5752 9.15278 11.3812 8.95833C11.1873 8.76389 10.9517 8.66667 10.6746 8.66667C10.3975 8.66667 10.1619 8.76389 9.96793 8.95833C9.77395 9.15278 9.67696 9.38889 9.67696 9.66667C9.67696 9.94444 9.77395 10.1806 9.96793 10.375C10.1619 10.5694 10.3975 10.6667 10.6746 10.6667ZM6.71734 4.33333C6.07443 4.33333 5.52573 4.56111 5.07126 5.01667C4.61679 5.47222 4.38955 6.02222 4.38955 6.66667C4.38955 7.2 4.53919 7.66667 4.83848 8.06667C5.13777 8.46667 5.53128 8.74444 6.019 8.9C6.019 8.64445 6.02177 8.4 6.02732 8.16667C6.03286 7.93333 6.07997 7.72222 6.16865 7.53333C6.01346 7.44444 5.89984 7.32222 5.82779 7.16667C5.75574 7.01111 5.71972 6.84444 5.71972 6.66667C5.71972 6.38889 5.81671 6.15278 6.01069 5.95833C6.20467 5.76389 6.44022 5.66667 6.71734 5.66667C6.88361 5.66667 7.04157 5.70833 7.19121 5.79167C7.34086 5.875 7.46556 5.98889 7.56532 6.13333C7.68725 6.07778 7.81473 6.03889 7.94774 6.01667C8.08076 5.99444 8.21378 5.98333 8.34679 5.98333H8.94537C8.80127 5.50556 8.52692 5.11111 8.12233 4.8C7.71774 4.48889 7.24941 4.33333 6.71734 4.33333ZM4.85511 13.3333L4.58907 11.2C4.44497 11.1444 4.30918 11.0778 4.18171 11C4.05424 10.9222 3.92953 10.8389 3.8076 10.75L1.82898 11.5833L0 8.41667L1.71259 7.11667C1.7015 7.03889 1.69596 6.96389 1.69596 6.89167V6.44167C1.69596 6.36944 1.7015 6.29444 1.71259 6.21667L0 4.91667L1.82898 1.75L3.8076 2.58333C3.92953 2.49444 4.05701 2.41111 4.19002 2.33333C4.32304 2.25556 4.45606 2.18889 4.58907 2.13333L4.85511 0H8.51306L8.7791 2.13333C8.9232 2.18889 9.05899 2.25556 9.18646 2.33333C9.31394 2.41111 9.43864 2.49444 9.56057 2.58333L11.5392 1.75L13.3682 4.91667L11.9549 6H10.2755C10.2645 5.94444 10.2534 5.88611 10.2423 5.825C10.2312 5.76389 10.2146 5.70556 10.1924 5.65L11.6223 4.56667L10.9739 3.43333L9.32779 4.13333C9.08393 3.87778 8.81512 3.66389 8.52138 3.49167C8.22763 3.31944 7.90895 3.18889 7.56532 3.1L7.34917 1.33333H6.03563L5.80285 3.1C5.45922 3.18889 5.14054 3.31944 4.84679 3.49167C4.55305 3.66389 4.28424 3.87222 4.04038 4.11667L2.3943 3.43333L1.74584 4.56667L3.17577 5.63333C3.12035 5.8 3.08155 5.96667 3.05938 6.13333C3.03721 6.3 3.02613 6.47778 3.02613 6.66667C3.02613 6.84444 3.03721 7.01667 3.05938 7.18333C3.08155 7.35 3.12035 7.51667 3.17577 7.68333L1.74584 8.76667L2.3943 9.9L4.04038 9.2C4.30641 9.47778 4.6057 9.71111 4.93824 9.9C5.27078 10.0889 5.63104 10.2111 6.019 10.2667V13.3333H4.85511ZM8.34679 14C8.06968 14 7.83413 13.9028 7.64014 13.7083C7.44616 13.5139 7.34917 13.2778 7.34917 13V8.33333C7.34917 8.05556 7.44616 7.81944 7.64014 7.625C7.83413 7.43056 8.06968 7.33333 8.34679 7.33333H13.0024C13.2795 7.33333 13.515 7.43056 13.709 7.625C13.903 7.81944 14 8.05556 14 8.33333V13C14 13.2778 13.903 13.5139 13.709 13.7083C13.515 13.9028 13.2795 14 13.0024 14H8.34679Z" fill="url(#paint0_linear_990_5569)"/>
<defs>
<linearGradient id="paint0_linear_990_5569" x1="7" y1="0" x2="7" y2="14" gradientUnits="userSpaceOnUse">
<stop stop-color="#0575E6"/>
<stop offset="1" stop-color="#021B79"/>
</linearGradient>
</defs>
</svg>
