<svg width="18" height="12" viewBox="0 0 18 12" fill="none" xmlns="http://www.w3.org/2000/svg">
<path d="M9 9.85714C10.0714 9.85714 10.9821 9.48214 11.7321 8.73214C12.4821 7.98214 12.8571 7.07143 12.8571 6C12.8571 4.92857 12.4821 4.01786 11.7321 3.26786C10.9821 2.51786 10.0714 2.14286 9 2.14286C7.92857 2.14286 7.01786 2.51786 6.26786 3.26786C5.51786 4.01786 5.14286 4.92857 5.14286 6C5.14286 7.07143 5.51786 7.98214 6.26786 8.73214C7.01786 9.48214 7.92857 9.85714 9 9.85714ZM9 8.31429C8.35714 8.31429 7.81071 8.08929 7.36071 7.63929C6.91071 7.18929 6.68571 6.64286 6.68571 6C6.68571 5.35714 6.91071 4.81071 7.36071 4.36071C7.81071 3.91071 8.35714 3.68571 9 3.68571C9.64286 3.68571 10.1893 3.91071 10.6393 4.36071C11.0893 4.81071 11.3143 5.35714 11.3143 6C11.3143 6.64286 11.0893 7.18929 10.6393 7.63929C10.1893 8.08929 9.64286 8.31429 9 8.31429ZM9 12C6.91429 12 5.57143 11.8786 3.85714 10.7143C2.14286 9.55 0.771429 7.95714 0 6C0.771429 4.04286 1.71429 2.87857 3.42857 1.71429C5.14286 0.55 6.91429 0 9 0C11.0857 0 12.8571 0.55 14.5714 1.71429C16.2857 2.87857 17.2286 4.04286 18 6C17.2286 7.95714 16.2857 9.12143 14.5714 10.2857C12.8571 11.45 11.0857 12 9 12ZM9 10.7143C10.6143 10.7143 12.0964 10.2893 13.4464 9.43929C14.7964 8.58929 15.8286 7.44286 16.5429 6C15.8286 4.55714 14.7964 3.41071 13.4464 2.56071C12.0964 1.71071 10.6143 1.28571 9 1.28571C7.38571 1.28571 5.90357 1.71071 4.55357 2.56071C3.20357 3.41071 2.17143 4.55714 1.45714 6C2.17143 7.44286 3.20357 8.58929 4.55357 9.43929C5.90357 10.2893 7.38571 10.7143 9 10.7143Z" fill="url(#paint0_linear_928_16387)"/>
<defs>
<linearGradient id="paint0_linear_928_16387" x1="9" y1="0" x2="9" y2="12" gradientUnits="userSpaceOnUse">
<stop stop-color="#0575E6"/>
<stop offset="1" stop-color="#021B79"/>
</linearGradient>
</defs>
</svg>
